<svg width="26" height="17" viewBox="0 0 26 17" fill="none" xmlns="http://www.w3.org/2000/svg">
<path opacity="0.1" d="M25.9917 5.06025C25.9413 7.01664 25.6757 8.97304 24.8616 10.6829C23.4069 13.7364 20.1624 15.554 17.1384 15.0071C16.7297 14.9554 16.3411 14.7993 16.01 14.5541C15.6924 14.2595 15.4434 13.8985 15.281 13.4969C14.6456 12.1324 14.321 10.5597 13.4322 9.3914C12.5434 8.22312 10.7398 7.71449 9.8822 8.91054C9.41524 9.55805 9.33711 10.5579 8.71391 11.0076C7.96573 11.5474 6.97798 10.9103 6.39645 10.1396C4.67787 7.88287 5.26635 3.44409 1.98891 2.82263C1.45771 2.72021 0.841461 2.7341 0.485595 2.27581C0.275547 2.005 0.214783 1.63004 0.164441 1.27417C0.105419 0.855815 0.055079 0.428776 0.0255681 0C-0.0347877 0.94772 0.0117954 1.89922 0.164441 2.83651C0.214783 3.19238 0.275547 3.56734 0.485595 3.83815C0.841461 4.29644 1.45771 4.28255 1.98891 4.38497C5.26635 5.00643 4.67787 9.44001 6.39645 11.7019C6.97625 12.464 7.95878 13.1011 8.71391 12.5699C9.33711 12.1203 9.40829 11.1204 9.8822 10.4729C10.7398 9.27683 12.5434 9.78719 13.4322 10.9537C14.321 12.1203 14.6473 13.6948 15.281 15.0592C15.4434 15.4609 15.6924 15.8218 16.01 16.1164C16.3411 16.3617 16.7297 16.5177 17.1384 16.5695C20.1624 17.1163 23.4069 15.2988 24.8616 12.2453C25.8649 10.1413 26.0333 7.65894 25.9951 5.26856C25.9917 5.19218 25.9917 5.12274 25.9917 5.06025Z" fill="black"/>
</svg>
