<svg width="18" height="11" viewBox="0 0 18 11" fill="none" xmlns="http://www.w3.org/2000/svg">
<path d="M17.9426 3.66562C17.6749 3.93392 17.3469 4.13433 16.9861 4.25016C16.6252 4.36598 16.2418 4.39386 15.868 4.33146C15.9577 4.11229 15.9676 3.86858 15.896 3.64284C15.0077 4.13877 14.0834 4.56751 13.1311 4.92546L13.0312 4.42258C11.689 5.0779 11.7941 7.30146 10.4519 7.95678C9.65291 8.34752 8.52449 8.06542 7.97255 8.7698C7.84989 8.92925 7.77805 9.12025 7.66591 9.29547C7.22786 9.96656 6.28167 10.112 5.50018 9.93502C4.20005 9.64065 3.13996 8.65942 2.45134 7.51873C1.76272 6.37804 1.39125 5.0779 1.02855 3.79529L0.313647 1.27035C0.196249 0.849821 0.0770972 0.429291 0 0C0 0.129663 2.78071e-06 0.257574 0.0192771 0.385485C0.0924605 0.982925 0.220323 1.57239 0.401257 2.14646L1.11616 4.67139C1.47886 5.95401 1.84858 7.25415 2.53895 8.39483C3.22932 9.53552 4.29116 10.5168 5.58779 10.8111C6.36928 10.9863 7.31547 10.8427 7.75352 10.1716C7.86566 9.99635 7.9375 9.80886 8.06016 9.64591C8.60334 8.94502 9.74053 9.22363 10.5395 8.83289C11.8817 8.17756 11.7766 5.954 13.1188 5.29868L13.2187 5.80156C14.1692 5.44337 15.0917 5.01464 15.9784 4.51894C16.05 4.74468 16.0401 4.98839 15.9504 5.20757C16.3059 5.2664 16.6701 5.24366 17.0156 5.14106C17.361 5.03846 17.6786 4.85868 17.9444 4.61532C18.0191 4.3031 18.0185 3.97757 17.9426 3.66562Z" fill="black"/>
</svg>
