<svg width="9" height="6" viewBox="0 0 9 6" fill="none" xmlns="http://www.w3.org/2000/svg">
<path opacity="0.25" d="M6.84019 5.71199C5.32257 6.2221 0 4.95318 0 4.95318C0 4.95318 3.47636 0.727068 4.99398 0.216958C5.36159 0.0662985 5.7562 -0.00734614 6.1534 0.000577856C6.5506 0.00850185 6.94195 0.0978275 7.30326 0.263028C7.66456 0.428229 7.98813 0.665793 8.25396 0.961032C8.51979 1.25627 8.72225 1.60291 8.84877 1.9795C8.9753 2.35609 9.02322 2.75464 8.98958 3.15049C8.95594 3.54635 8.84145 3.93109 8.65319 4.28094C8.46493 4.63078 8.20689 4.93828 7.89505 5.18442C7.58321 5.43057 7.22419 5.61013 6.84019 5.71199Z" fill="black"/>
</svg>
