<svg width="24" height="20" viewBox="0 0 24 20" fill="none" xmlns="http://www.w3.org/2000/svg">
<path d="M13.0929 0.766885C12.3148 0.445209 11.5249 0.121848 10.6879 0.0258508C9.85089 -0.0701466 8.94818 0.0932186 8.31661 0.650677C7.81136 1.0953 7.41558 1.80938 6.74192 1.82959C6.41351 1.84138 6.11036 1.67633 5.81563 1.53318C4.97354 1.12898 3.92094 0.899934 3.16138 1.4355C2.55508 1.86496 2.32772 2.65315 2.22836 3.38913C2.12899 4.12511 2.10541 4.90488 1.75511 5.55328C1.53785 5.95748 1.20775 6.28758 0.934915 6.65641C0.241442 7.59355 -0.0845039 8.75235 0.0187335 9.91359C0.089075 10.4878 0.211972 11.0544 0.38588 11.6062L1.07302 14.0331C1.42164 15.2659 1.777 16.5155 2.44056 17.6119C3.10412 18.7083 4.12473 19.6514 5.37101 19.9344C6.12215 20.1028 7.0316 19.9647 7.45264 19.3196C7.56042 19.1512 7.62947 18.971 7.74737 18.8144C8.26946 18.1407 9.36248 18.4085 10.1305 18.0329C11.4205 17.4031 11.3195 15.2659 12.6096 14.636L12.7055 15.1193C13.6209 14.7753 14.5093 14.3632 15.3632 13.8865C15.432 14.1035 15.4224 14.3377 15.3362 14.5484C15.6955 14.6084 16.064 14.5816 16.4109 14.4703C16.7577 14.3589 17.073 14.1663 17.3303 13.9084C17.421 14.2724 17.4046 14.6549 17.2831 15.0099C18.4957 14.7758 19.2367 13.5766 20.2338 12.8474C20.3301 12.7668 20.4465 12.7139 20.5706 12.6941C20.7845 12.6756 20.963 12.8356 21.1432 12.9501C21.4553 13.1396 21.8225 13.2177 22.1847 13.1715C22.5469 13.1253 22.8827 12.9576 23.1373 12.6958C23.6678 12.1198 23.6914 11.234 23.5213 10.4694C23.3512 9.70475 23.016 8.97551 22.9436 8.19574C22.8375 7.13303 23.208 6.02316 22.8678 5.01266C22.5798 4.15542 21.8253 3.53397 21.0152 3.1264C20.2051 2.71883 19.3311 2.48136 18.5041 2.1159C17.7193 1.76391 16.9884 1.29234 16.1732 1.01446C14.9943 0.611942 13.7127 0.643941 12.4681 0.677625" fill="#794F6A"/>
</svg>
