<svg width="39" height="40" viewBox="0 0 39 40" fill="none" xmlns="http://www.w3.org/2000/svg">
<path opacity="0.1" d="M37.1609 31.1341L35.3507 30.2842L35.5206 30.0258L36.0306 29.2779L28.8441 23.2014L4.58034 0C4.58034 0 -1.87866 0.803972 0.543468 6.07315C2.96559 11.3423 9.46708 14.3594 9.46708 14.3594C9.46708 14.3594 13.7164 15.5917 14.8212 16.9515C15.9261 18.3112 28.2917 25.5776 28.2917 25.5776L27.7936 32.2763L27.7698 32.5958L27.6118 32.4615C27.6118 32.4615 26.4831 34.8293 23.2128 35.618C22.5544 35.7674 21.9723 36.1502 21.5743 36.6956L21.5624 36.7126C20.8825 37.6644 20.4117 39.0497 22.9375 39.4322C26.8894 40.0271 31.3087 39.1772 31.3087 39.1772L39 31.9958L37.1609 31.1341Z" fill="black"/>
</svg>
