<svg width="59" height="84" viewBox="0 0 59 84" fill="none" xmlns="http://www.w3.org/2000/svg">
<path d="M54.3865 71.4685C54.3865 71.4685 47.1047 83.0956 47.1047 83.9999C47.1047 83.9999 38.8627 80.7824 35.9279 80.105C32.9932 79.4277 30.2261 73.2754 30.2261 73.2754C30.2261 73.2754 22.4363 65.936 19.3881 64.9199C16.8022 64.0579 4.37569 46.5291 0.673816 41.2405C0.220629 40.5933 -0.0150808 39.8188 0.00074813 39.0289C0.016577 38.2389 0.283128 37.4745 0.761878 36.846L0.831305 36.7562C1.81095 35.5237 3.10833 34.5819 4.58368 34.0322C6.05903 33.4825 7.65641 33.3458 9.2037 33.6369C9.54709 33.7001 9.88638 33.7838 10.2198 33.8875C15.5507 35.5352 24.7834 38.3667 29.4404 39.6452C30.9983 40.0737 32.0398 40.3226 32.2515 40.3074C32.7595 40.2549 33.0389 39.7993 33.193 39.2998C33.3106 38.8933 33.3738 38.4731 33.381 38.05C33.381 38.05 33.381 38.0229 33.381 37.9738C33.2383 36.8972 33.0141 35.8329 32.7104 34.7901C32.1668 32.9273 31.2253 30.7411 29.6622 29.6962C28.365 28.8309 27.3337 26.9224 26.7935 24.704C26.067 21.7083 26.2347 18.1436 27.8553 15.81L29.4217 12.1149L32.0415 5.93384L33.5012 2.48937C35.3209 0.895452 37.6545 0.0115476 40.0735 4.03659e-06C40.5136 -0.00040041 40.9533 0.0295882 41.3893 0.0897564C42.5121 0.245553 43.4824 0.582552 43.8871 1.24638C45.1284 3.27852 47.9514 7.00409 48.5153 10.7297C49.0792 14.4553 48.4036 20.5517 50.3222 22.8107C52.2409 25.0698 53.3704 30.4871 55.4026 31.6166C57.4347 32.7461 52.1291 35.1153 52.1291 35.1153L52.1494 35.4726L52.2409 37.0356C52.2409 37.0356 52.2782 37.078 52.3459 37.1627C53.5279 38.6258 64.2085 52.6729 54.3865 71.4685Z" fill="#FF6584"/>
</svg>
