<svg width="5" height="5" viewBox="0 0 5 5" fill="none" xmlns="http://www.w3.org/2000/svg">
<path d="M0.631358 3.3826C1.40273 4.13372 5.00003 4.91062 5.00003 4.91062C5.00003 4.91062 4.11819 1.33726 3.34314 0.586134C3.16114 0.400132 2.94376 0.25244 2.70379 0.151775C2.46383 0.05111 2.20613 -0.000490326 1.94591 3.5114e-06C1.68568 0.000497349 1.42819 0.0530765 1.18861 0.154652C0.949028 0.256227 0.732202 0.404746 0.550918 0.591437C0.369635 0.778129 0.227563 0.999219 0.133072 1.24168C0.038581 1.48415 -0.00641654 1.74308 0.000736747 2.0032C0.00789004 2.26333 0.0670469 2.51939 0.17472 2.7563C0.282393 2.9932 0.436406 3.20615 0.627675 3.3826H0.631358Z" fill="#63FFFF"/>
</svg>
