<svg width="19" height="18" viewBox="0 0 19 18" fill="none" xmlns="http://www.w3.org/2000/svg">
<path opacity="0.1" d="M19 9.48758C19.0003 10.2243 18.9151 10.9586 18.7461 11.6756C18.602 11.6384 18.4641 11.5802 18.3368 11.5029C18.1521 11.3838 17.9673 11.2197 17.7497 11.2387C17.6221 11.2588 17.5025 11.3138 17.4043 11.3976C16.3819 12.1454 15.6221 13.375 14.3787 13.6133C14.5033 13.2493 14.52 12.8571 14.427 12.4839C14.1633 12.749 13.8398 12.947 13.4837 13.0612C13.1276 13.1754 12.7493 13.2025 12.3806 13.1401C12.4704 12.9245 12.4808 12.684 12.4099 12.4614C11.5343 12.9518 10.6227 13.3749 9.68305 13.7273C9.65024 13.5546 9.61915 13.3957 9.58634 13.2299C8.26349 13.8758 8.36711 16.0673 7.04426 16.7132C6.25677 17.0983 5.14461 16.822 4.60062 17.5162C4.57989 17.5438 4.5609 17.5715 4.5419 17.6008C3.1284 16.7362 1.96567 15.5168 1.16921 14.0638C0.372749 12.6108 -0.0297405 10.9747 0.00171165 9.31798C0.0331638 7.66129 0.497466 6.04164 1.3485 4.6199C2.19954 3.19816 3.40771 2.02379 4.85301 1.21342C6.29832 0.403048 7.93048 -0.0151296 9.58739 0.000418248C11.2443 0.0159661 12.8683 0.464699 14.2982 1.30205C15.728 2.1394 16.9139 3.33624 17.7381 4.7737C18.5624 6.21116 18.9962 7.83922 18.9965 9.49621L19 9.48758Z" fill="black"/>
</svg>
