<svg width="5" height="27" viewBox="0 0 5 27" fill="none" xmlns="http://www.w3.org/2000/svg">
<path d="M1.21492 1.05521C1.57986 2.01575 1.46452 3.08473 1.30443 4.10035C1.07416 5.56834 0.764436 7.02275 0.376606 8.45718C0.144218 9.31788 -0.119161 10.213 0.0581422 11.0875C0.194132 11.7657 0.574561 12.3613 0.877525 12.981C1.66764 14.6525 1.80363 16.5477 1.86388 18.3948C1.92413 20.2418 1.92241 22.1216 2.47498 23.8843C2.83296 25.0856 3.51701 26.1641 4.45113 27C3.95761 26.3388 3.58039 25.5983 3.33567 24.8104C2.78311 23.0477 2.7831 21.1679 2.72457 19.3209C2.66605 17.4738 2.52834 15.5786 1.73822 13.9088C1.44214 13.284 1.04966 12.6884 0.918837 12.0153C0.746698 11.1408 1.00491 10.244 1.2373 9.38329C1.62562 7.94491 1.93534 6.48646 2.16512 5.01441C2.32521 3.99879 2.44055 2.92808 2.07562 1.96755C1.78126 1.19809 1.21492 0.590436 0.600384 0C0.857753 0.318402 1.06499 0.674242 1.21492 1.05521Z" fill="black"/>
</svg>
