<svg width="11" height="21" viewBox="0 0 11 21" fill="none" xmlns="http://www.w3.org/2000/svg">
<path d="M10.1318 2.11595C9.74702 3.06191 9.29517 3.97918 8.77967 4.86074C8.77967 4.86074 7.68108 11.1295 7.21291 11.7075C6.87488 12.1301 6.71939 15.2839 6.66361 16.9284C6.64333 17.5233 6.63488 17.9205 6.63488 17.9205L0.175145 20.9999L0.14641 16.9301C0.14641 16.9301 0.14641 16.9115 0.14641 16.876C0.105847 15.9785 -0.360631 5.58413 0.617962 4.97905C1.19261 4.62243 1.74022 3.1199 2.11036 1.88778C2.39262 0.936234 2.57008 0.140171 2.57008 0.140171C2.57008 0.140171 9.74644 -0.326312 10.3447 0.442703C10.5645 0.716507 10.4124 1.38243 10.1318 2.11595Z" fill="#FFC1C8"/>
</svg>
