<svg width="25" height="30" viewBox="0 0 25 30" fill="none" xmlns="http://www.w3.org/2000/svg">
<path opacity="0.1" d="M24.4046 27.2082C24.4046 27.2082 19.541 29.1537 18.0185 29.8304C16.4959 30.507 7.78375 28.9422 7.78375 28.9422C7.78375 28.9422 3.25848 26.6584 3.63911 24.3747C4.01974 22.0909 0.00198245 14.6085 0.00198245 14.6085C0.00198245 14.6085 -0.124894 7.96867 1.65138 6.6999C3.42765 5.43113 2.75098 2.76672 2.75098 2.76672C2.75098 2.76672 2.75943 2.67876 2.7865 2.53496C2.89646 1.96994 3.29401 0.532004 4.61183 0.0600231C4.87864 -0.0117332 5.15864 -0.0192653 5.42892 0.0380355C6.69261 0.229196 8.76831 1.16977 10.4854 2.03761C11.9064 2.75657 13.0821 3.42479 13.3511 3.58043L13.4086 3.61257C13.4086 3.61257 14.043 5.0928 14.8043 4.62758C15.5655 4.16237 19.3718 6.31927 20.0908 7.29199C20.8098 8.26471 20.3022 12.8323 20.1754 13.9742C20.0485 15.1161 20.8943 18.4994 21.8248 20.4415C22.7552 22.3835 24.4046 27.2082 24.4046 27.2082Z" fill="black"/>
</svg>
