<svg width="185" height="23" viewBox="0 0 185 23" fill="none" xmlns="http://www.w3.org/2000/svg">
<path opacity="0.1" d="M184.575 0L4.31385 4.3864C2.12065 10.0229 0.67483 16.3883 0 22.9999H181.416C182.6 19.1199 183.477 15.1525 184.036 11.1347C184.576 7.25274 184.792 3.49731 184.575 0ZM36.5961 14.3638H33.3451C33.5629 14.3567 33.78 14.3936 33.9833 14.4721C34.1867 14.5507 34.3722 14.6693 34.5288 14.8209C34.6854 14.9725 34.8099 15.1541 34.8949 15.3548C34.98 15.5555 35.0238 15.7713 35.0238 15.9893C35.0238 16.2072 34.98 16.423 34.8949 16.6237C34.8099 16.8244 34.6854 17.006 34.5288 17.1576C34.3722 17.3093 34.1867 17.4279 33.9833 17.5064C33.78 17.5849 33.5629 17.6218 33.3451 17.6148H14.5392C14.1172 17.6012 13.717 17.4239 13.4232 17.1206C13.1295 16.8172 12.9653 16.4115 12.9653 15.9893C12.9653 15.567 13.1295 15.1613 13.4232 14.8579C13.717 14.5546 14.1172 14.3774 14.5392 14.3638H17.7902C17.3593 14.3638 16.9461 14.1926 16.6414 13.8879C16.3367 13.5832 16.1656 13.17 16.1656 12.7391C16.1656 12.3082 16.3367 11.895 16.6414 11.5903C16.9461 11.2856 17.3593 11.1145 17.7902 11.1145H15.4688C15.0468 11.1009 14.6465 10.9236 14.3528 10.6203C14.0591 10.3169 13.8948 9.91122 13.8948 9.48896C13.8948 9.06669 14.0591 8.66099 14.3528 8.35763C14.6465 8.05428 15.0468 7.87706 15.4688 7.86346H34.2746C34.6967 7.87706 35.0969 8.05428 35.3906 8.35763C35.6844 8.66099 35.8486 9.06669 35.8486 9.48896C35.8486 9.91122 35.6844 10.3169 35.3906 10.6203C35.0969 10.9236 34.6967 11.1009 34.2746 11.1145H36.5961C37.0269 11.1145 37.4402 11.2856 37.7449 11.5903C38.0495 11.895 38.2207 12.3082 38.2207 12.7391C38.2207 13.17 38.0495 13.5832 37.7449 13.8879C37.4402 14.1926 37.0269 14.3638 36.5961 14.3638Z" fill="#63FFFF"/>
</svg>
