<svg width="20" height="4" viewBox="0 0 20 4" fill="none" xmlns="http://www.w3.org/2000/svg">
<path d="M19.4454 1.71115C17.1854 2.18413 12.2424 3.21436 10.0375 3.6667L9.65047 3.74582C9.52148 3.77162 9.377 3.7957 9.22049 3.81806C7.00523 4.12248 2.19978 3.97285 0 3.88341C0.11943 3.47061 0.183624 3.04379 0.190909 2.61411C0.190909 2.61411 0.190909 2.58659 0.190909 2.53671C1.86439 2.42836 5.83053 2.1119 9.22909 1.41361C9.506 1.35685 9.77946 1.29666 10.046 1.24162C10.4313 1.15218 10.8063 1.05758 11.164 0.957829C14.2117 0.0978685 17.4297 -0.0156458 19.2476 0.00155337L19.3405 1.58904C19.3405 1.58904 19.368 1.62516 19.4454 1.71115Z" fill="#575988"/>
</svg>
