<svg width="5" height="5" viewBox="0 0 5 5" fill="none" xmlns="http://www.w3.org/2000/svg">
<path d="M4.20258 3.32211C3.40062 3.9159 0 4.17525 0 4.17525C0 4.17525 1.25241 1.00327 2.04754 0.409484C2.23684 0.254314 2.4557 0.139226 2.69083 0.0711958C2.92596 0.0031659 3.17246 -0.0163881 3.41537 0.0137295C3.65828 0.0438472 3.89254 0.123004 4.10394 0.246396C4.31533 0.369788 4.49946 0.534844 4.64513 0.731547C4.79081 0.92825 4.895 1.1525 4.95139 1.39069C5.00778 1.62888 5.01518 1.87605 4.97316 2.11718C4.93114 2.35832 4.84056 2.58841 4.70692 2.79348C4.57328 2.99855 4.39938 3.17434 4.19575 3.31017L4.20258 3.32211Z" fill="#63FFFF"/>
</svg>
