<svg width="21" height="18" viewBox="0 0 21 18" fill="none" xmlns="http://www.w3.org/2000/svg">
<path opacity="0.1" d="M20.1004 10.5611C20.1039 13.2856 19.0489 15.905 17.158 17.8666C16.3878 18.0298 15.5935 18.0435 14.8182 17.907C14.4218 17.8568 14.045 17.7055 13.724 17.4677C13.415 17.1825 13.1729 16.8324 13.0153 16.4425C12.4009 15.1212 12.0861 13.5944 11.2243 12.4632C10.3624 11.332 8.61349 10.8354 7.78194 11.9952C7.32913 12.6248 7.25337 13.5927 6.64907 14.0287C5.92356 14.5539 4.96576 13.9361 4.40185 13.187C2.73538 10.9987 3.30602 6.6962 0.127933 6.09189L0 6.07C1.01912 3.89695 2.74881 2.13639 4.90349 1.07897C7.05817 0.0215485 9.50902 -0.269503 11.8514 0.253865C14.1938 0.777233 16.2877 2.08373 17.7875 3.95766C19.2872 5.83159 20.1031 8.16091 20.1004 10.5611Z" fill="black"/>
</svg>
