<svg width="5" height="3" viewBox="0 0 5 3" fill="none" xmlns="http://www.w3.org/2000/svg">
<path opacity="0.1" d="M0 0.129678C0 0.129678 1.08177 4.08525 3.64773 2.7094C3.79355 2.6862 3.92829 2.61749 4.0327 2.51308C4.13711 2.40867 4.20583 2.27392 4.22902 2.1281C4.22902 2.1281 4.02609 2.18829 3.96073 1.77382C3.93737 1.62669 3.89637 1.48291 3.83862 1.34559C3.76085 1.15983 3.62512 1.00418 3.45167 0.901872C3.45167 0.901872 2.63131 -0.0354215 0.699965 0.143439C0.699965 0.143439 0.204659 -0.0388626 0.108349 0.00757232L0.610531 0.568233C0.610531 0.568233 1.0061 0.184715 1.45841 0.22427C1.45841 0.22427 0.617417 0.532114 0.68105 0.650781C0.693088 0.674858 0.959658 0.93627 0.959658 0.93627C0.959658 0.93627 1.64759 0.272421 2.34927 0.360132C2.34927 0.360132 1.29846 0.594025 1.05941 1.03602L1.48592 1.4075C1.48592 1.4075 2.18417 0.66798 2.98044 0.738493C2.98044 0.738493 1.89008 1.02054 1.58395 1.48145L2.05174 1.7893C2.05174 1.7893 2.73966 1.08245 3.40867 1.14437C3.40867 1.14437 2.18245 1.5984 2.16353 1.85121C2.35144 1.96452 2.5524 2.05461 2.76202 2.1195C2.76202 2.1195 3.27796 1.6242 3.65288 1.69471C3.65288 1.69471 2.86521 2.08338 2.89273 2.17625C2.89273 2.17625 3.56174 2.34824 3.95042 2.26569C3.59798 2.36542 3.22552 2.37075 2.87037 2.28117C2.98091 2.4779 3.14648 2.63808 3.34676 2.74207C3.34676 2.74207 2.94088 2.81603 2.70698 2.23645C2.70698 2.23645 2.19104 2.0765 2.13773 2.00427C2.13773 2.00427 2.28735 2.60793 2.56768 2.91062C2.56768 2.91062 2.09645 2.72144 2.01218 1.92688L1.53923 1.63279C1.53923 1.63279 1.69401 2.44283 1.92275 2.73176C1.92275 2.73176 1.47216 2.46346 1.42401 1.54852L1.00265 1.1908C1.04455 1.56193 1.13414 1.92609 1.26922 2.27428C1.26922 2.27428 0.904627 1.93032 0.887429 1.08246L0.63289 0.810722C0.63289 0.810722 0.701689 1.32667 0.736085 1.47285C0.770481 1.61904 0.736085 1.64483 0.736085 1.64483C0.580737 1.35603 0.508688 1.02974 0.527984 0.702378C0.527984 0.702378 0.0395557 0.102161 0 0.129678Z" fill="#63FFFF"/>
</svg>
