<svg width="3" height="5" viewBox="0 0 3 5" fill="none" xmlns="http://www.w3.org/2000/svg">
<path opacity="0.1" d="M0.364324 0.0369117C0.364324 0.0369117 -1.13984 4.17847 1.96448 4.55682C2.10663 4.62675 2.26724 4.64994 2.42337 4.62309C2.57949 4.59624 2.72313 4.52072 2.83375 4.40732C2.83375 4.40732 2.61782 4.33534 2.81715 3.93115C2.8881 3.78738 2.94139 3.63555 2.97587 3.47898C3.02351 3.26821 3.00015 3.04759 2.90943 2.85147C2.90943 2.85147 2.77101 1.52079 0.96969 0.485397C0.96969 0.485397 0.648547 0.0184561 0.535964 0L0.628245 0.802842C0.628245 0.802842 1.21516 0.710562 1.58428 1.02801C1.58428 1.02801 0.661475 0.778848 0.637482 0.922806C0.637482 0.95049 0.705769 1.34545 0.705769 1.34545C0.705769 1.34545 1.72454 1.19042 2.28007 1.69981C2.28007 1.69981 1.21515 1.25317 0.731599 1.49495L0.875562 2.08185C0.875562 2.08185 1.94417 1.86592 2.6012 2.42144C2.6012 2.42144 1.46984 1.99326 0.91616 2.2092L1.13579 2.76288C1.13579 2.76288 2.18226 2.57832 2.72487 3.03788C2.72487 3.03788 1.36834 2.66875 1.19485 2.88654C1.28937 3.10144 1.4096 3.30409 1.5529 3.49005C1.5529 3.49005 2.30776 3.37193 2.59937 3.67461C2.59937 3.67461 1.66548 3.52881 1.63411 3.62478C1.63411 3.62478 2.11028 4.19692 2.50524 4.36303C2.13434 4.23177 1.80416 4.00592 1.54737 3.70784C1.52291 3.94916 1.56975 4.19235 1.68209 4.40732C1.68209 4.40732 1.27975 4.22276 1.43294 3.56757C1.43294 3.56757 1.08042 3.10801 1.07857 3.01388C1.07857 3.01388 0.834954 3.63586 0.894014 4.07511C0.894014 4.07511 0.598724 3.61556 1.01768 2.86808L0.783281 2.3144C0.783281 2.3144 0.414164 3.12093 0.441848 3.51589C0.441848 3.51589 0.212987 3.00097 0.737141 2.16859L0.589494 1.59461C0.396346 1.94323 0.249313 2.31547 0.152085 2.70198C0.152085 2.70198 0.0413455 2.17967 0.55258 1.42112L0.499061 1.02616C0.499061 1.02616 0.240668 1.52079 0.179763 1.66843C0.118858 1.81608 0.0727254 1.81424 0.0727254 1.81424C0.115387 1.46492 0.254731 1.13445 0.475067 0.860056C0.475067 0.860056 0.414155 0.0369117 0.364324 0.0369117Z" fill="#63FFFF"/>
</svg>
