<svg width="7" height="5" viewBox="0 0 7 5" fill="none" xmlns="http://www.w3.org/2000/svg">
<path d="M6.90734 0C6.91985 0.544549 6.73165 1.07468 6.37859 1.48945C6.09718 1.77884 5.72593 1.96421 5.32552 2.01527C4.92511 2.06634 4.51922 1.98008 4.17419 1.77059C3.97498 1.64398 3.77763 1.46711 3.54117 1.48759C3.40403 1.50941 3.27536 1.56795 3.16881 1.65702C2.12061 2.42409 1.32747 3.66033 0.0968125 4.00105C0.140381 4.32997 0.107248 4.66451 0 4.9785C1.34051 4.71971 2.15971 3.39409 3.2619 2.58793C3.36845 2.49886 3.49712 2.44032 3.63427 2.4185C3.87072 2.39802 4.06807 2.57489 4.26728 2.7015C4.61231 2.91099 5.0182 2.99725 5.41861 2.94618C5.81902 2.89512 6.19027 2.70974 6.47168 2.42036C7.04698 1.78734 7.08235 0.834094 6.90734 0Z" fill="black"/>
</svg>
