<svg width="49" height="37" viewBox="0 0 49 37" fill="none" xmlns="http://www.w3.org/2000/svg">
<path d="M40.8944 0.387718C40.8944 0.387718 36.1512 2.82339 35.553 12.3952C35.553 12.3952 34.7838 17.2665 34.3565 18.1211C33.9292 18.9758 31.8781 27.0519 32.1345 28.0348C32.1345 28.0348 31.7072 29.0176 30.1262 28.5903C28.5451 28.163 19.9989 26.8383 18.076 25.5564L12.7773 23.0352C12.7773 23.0352 2.43638 15.7282 0.25709 22.0097C-1.9222 28.2911 10.4698 28.0382 10.4698 28.0382L16.324 30.773L34.0574 36.6237C34.0574 36.6237 36.4076 37.692 37.9887 34.2735C39.0003 32.12 40.2015 30.0608 41.5781 28.1202C41.5781 28.1202 45.1675 18.0357 45.1248 16.3264C45.082 14.6172 48.9706 10.5577 48.9706 10.5577C48.9706 10.5577 49.7397 -0.210518 43.4155 0.00313786L40.8944 0.387718Z" fill="#FFC1C7"/>
</svg>
