<svg width="6" height="4" viewBox="0 0 6 4" fill="none" xmlns="http://www.w3.org/2000/svg">
<path d="M1.08448 3.73399C2.05743 4.2242 5.76843 3.88683 5.76843 3.88683C5.76843 3.88683 3.83558 0.701457 2.86076 0.211255C2.62946 0.0946223 2.37744 0.0246839 2.11911 0.0054468C1.86078 -0.0137903 1.60119 0.0180433 1.35516 0.0991303C1.10912 0.180217 0.881473 0.308973 0.685201 0.47804C0.48893 0.647106 0.327882 0.853179 0.211249 1.08449C0.0946166 1.31579 0.0246839 1.56781 0.00544681 1.82614C-0.0137903 2.08447 0.0180433 2.34406 0.0991303 2.59009C0.180217 2.83612 0.30897 3.06378 0.478037 3.26005C0.647103 3.45632 0.853173 3.61736 1.08448 3.73399Z" fill="#63FFFF"/>
</svg>
