<svg width="120" height="113" viewBox="0 0 120 113" fill="none" xmlns="http://www.w3.org/2000/svg">
<path d="M110.954 44.5978C111.322 45.023 111.728 45.4137 112.167 45.765L115.453 48.565C116.038 49.0626 116.633 49.577 117.375 49.8115C117.815 49.9495 118.28 49.985 118.735 49.9151C119.19 49.8452 119.622 49.6718 120 49.4084L119.944 49.3898L120 49.3527C119.445 49.1739 118.877 48.9884 118.42 48.6291C118.231 48.4881 118.073 48.3111 117.954 48.1084C117.834 47.9058 117.756 47.6814 117.725 47.4484C117.725 47.4248 117.725 47.4028 117.725 47.3792C117.726 47.3153 117.732 47.2516 117.743 47.1886C118.451 47.1283 119.132 46.8885 119.722 46.492L119.664 46.4718L119.722 46.4363C117.971 45.8747 116.758 44.2318 116.208 42.4928C115.658 40.7537 115.657 38.9017 115.598 37.0817C115.539 35.2617 115.404 33.3911 114.618 31.7449C114.322 31.1275 113.943 30.5406 113.8 29.8726C113.76 29.6744 113.741 29.4726 113.744 29.2705C113.756 28.6211 113.945 27.9683 114.118 27.3341C114.504 25.9177 114.813 24.4813 115.043 23.0312C115.133 22.5158 115.183 21.9942 115.193 21.471C115.209 20.9604 115.127 20.4514 114.952 19.9715C114.179 17.9643 111.494 17.018 111.084 14.9113C111.036 14.6278 111.016 14.3402 111.023 14.0527C111.023 13.8942 111.023 13.7373 111.023 13.5805C111.023 13.4236 111.023 13.2431 111.01 13.0879C110.893 11.6053 109.976 10.3183 109.09 9.11568C108.024 7.66846 106.897 6.16389 105.26 5.39306C103.988 4.79089 102.288 4.59186 100.771 4.7268C100.091 4.13971 99.3448 3.63315 98.5481 3.21717C97.3893 2.57284 96.1867 1.93863 94.9031 1.79694C93.2754 1.61815 91.6662 2.24224 90.0335 2.34682C87.8137 2.49019 85.6345 1.67212 83.4147 1.50345C81.195 1.33478 78.6396 2.082 77.6478 4.31692C77.4153 4.85958 77.274 5.43689 77.2295 6.02558C77.2194 6.13859 77.2126 6.24992 77.2076 6.36293V6.37474C77.1911 6.83108 77.204 7.28801 77.2464 7.74268V7.79497C77.2464 7.88605 77.2632 7.97713 77.2733 8.06822C77.2733 8.0952 77.2733 8.1205 77.2818 8.14749C77.2818 8.23183 77.3003 8.31617 77.3105 8.4005L77.3206 8.47978C77.3341 8.58604 77.3493 8.69231 77.3627 8.79857C77.3884 9.01738 77.4353 9.23318 77.5027 9.4429C77.5441 9.5641 77.6045 9.67796 77.6815 9.78025C77.9227 10.0872 78.2854 10.1783 78.6598 10.2357L78.955 10.2778C78.9247 10.3386 78.8926 10.3993 78.8639 10.4617C78.1946 11.8727 77.8488 13.4154 77.8519 14.9771C77.8519 20.2835 81.7803 24.6825 86.913 25.4821L87.2217 25.8666C89.1142 28.2382 91.4891 31.4042 92.6192 33.6829C91.3137 35.3039 89.7855 38.1781 89.3504 42.9988L88.7043 44.5067C87.3499 46.4549 87.0007 49.265 87.3499 51.8794C86.9687 53.2929 86.5335 55.069 86.2316 56.5382C83.9865 56.0406 76.3237 54.8093 74.5122 53.6134L69.199 51.1103C69.199 51.1103 62.2834 46.2795 58.5624 47.892C57.1405 46.1445 54.995 44.3144 54.0707 43.6229C52.4851 42.4337 48.5415 37.7885 48.5415 37.7885L42.363 29.5876C42.3462 28.6379 42.245 27.8266 41.9852 27.4775C41.2565 26.5025 37.399 24.3384 36.6281 24.8057C35.8573 25.2729 35.213 23.7936 35.213 23.7936L35.1539 23.7616C35.0089 23.6772 34.5973 23.4445 34.0255 23.1375C33.9954 22.4529 34.0123 21.767 34.0761 21.0847C34.0879 20.97 34.1031 20.8553 34.12 20.7474C36.168 20.6735 38.1358 19.9325 39.724 18.6372C41.3122 17.342 42.4337 15.5634 42.918 13.572C42.945 13.4658 42.9635 13.3561 42.9854 13.2482C43.2619 13.3124 43.5503 13.3045 43.8229 13.2254C44.0955 13.1462 44.3432 12.9984 44.5423 12.7961C45.082 12.2159 45.1057 11.3236 44.9336 10.5545C44.7616 9.78531 44.4276 9.04821 44.3433 8.26219C44.237 7.19112 44.6148 6.06944 44.2673 5.0574C43.9755 4.19379 43.2064 3.56632 42.3866 3.15645C41.5669 2.74657 40.6696 2.50706 39.8312 2.13429C39.0317 1.78007 38.2879 1.30442 37.458 1.02442C36.3819 0.66177 35.2248 0.648275 34.0845 0.675263C33.3694 0.386831 32.6407 0.111895 31.8749 0.0258717C31.0316 -0.0702721 30.1039 0.0933403 29.4612 0.655023C28.9552 1.10369 28.5436 1.82393 27.8571 1.84754C27.5198 1.85935 27.2162 1.69236 26.9159 1.54899C26.0641 1.1408 24.9863 0.909719 24.2172 1.45116C23.5998 1.88296 23.3738 2.67742 23.2675 3.41789C23.1613 4.15837 23.1427 4.93595 22.7851 5.59884C22.5642 6.00703 22.2285 6.33932 21.9502 6.7104C21.2457 7.65237 20.9136 8.82113 21.0174 9.99278V10.0265C20.9769 9.85784 20.9381 9.70097 20.9095 9.53568C20.9095 9.66049 20.9095 9.78362 20.9263 9.90844C20.9997 10.4871 21.1255 11.0579 21.3025 11.6137L22.0008 14.0595C22.355 15.3009 22.7177 16.5609 23.3923 17.6657C23.6555 18.101 23.9736 18.5006 24.3386 18.8549C24.9136 19.4586 25.6493 19.8853 26.4588 20.0845C26.7431 20.1483 27.0359 20.166 27.3258 20.1368C27.3258 20.1722 27.3174 20.2059 27.3106 20.2414C27.2482 20.2296 27.1841 20.2161 27.1251 20.2076C26.8511 20.1505 26.5675 20.158 26.2969 20.2296C24.9644 20.7035 24.5596 22.1457 24.4415 22.7124C24.4145 22.8575 24.4061 22.9452 24.4061 22.9452C24.4061 22.9452 24.428 23.0295 24.4533 23.1729L24.4415 23.2218C24.4145 23.3652 24.4061 23.4546 24.4061 23.4546C24.4061 23.4546 24.428 23.5389 24.4533 23.6857L24.1058 23.6941L18.295 24.4531C16.9676 24.3621 15.7042 24.3401 15.0278 24.5021C14.9706 24.5147 14.9143 24.531 14.8592 24.551C14.0158 24.8428 10.1515 27.5095 6.68356 29.9637C6.68356 29.8962 6.68356 29.8304 6.67344 29.7664L5.68671 30.468C5.68671 30.5338 5.68671 30.603 5.68671 30.6721C5.44044 30.8408 5.19587 31.0196 4.95972 31.19C3.89877 31.949 2.93564 32.6338 2.21878 33.1584C1.34505 33.7858 0.803612 34.1822 0.803612 34.1822C0.803612 34.1822 0.483135 34.2868 0.270607 34.781C-0.00264417 35.4135 -0.0971015 36.6853 0.889637 39.1884C2.64721 43.6431 3.03179 46.6556 3.03179 46.6556C2.55495 46.7054 2.08694 46.8189 1.64023 46.993C1.03132 47.2359 0.395425 47.6474 0.130607 48.3423C-0.0393949 48.8276 -0.0435489 49.3556 0.118799 49.8435C0.931805 52.7279 14.3903 69.106 14.3903 69.106L14.5589 69.1212C15.2491 69.182 15.9434 69.182 16.6336 69.1212C17.2628 69.0554 17.8514 68.9053 18.1213 68.5882C18.1213 68.5882 21.1051 72.4188 25.4873 69.8094C25.4569 73.2841 25.3692 75.8327 25.9208 77.1163C26.7793 79.11 26.7793 83.6491 26.7793 83.6491L27.5957 83.6777C27.5518 83.8464 27.5029 84.0151 27.4506 84.1837C27.0745 85.4269 26.5195 86.9297 25.9326 87.289C24.9441 87.8962 25.4131 98.3337 25.4535 99.2345C25.4535 99.2699 25.4535 99.2884 25.4535 99.2884L25.3962 103.505V103.843C25.2737 103.678 25.1637 103.504 25.0673 103.323C25.0673 103.323 23.4784 104.841 23.4497 108.046C23.421 111.251 23.4784 111.359 23.4784 111.359C23.4784 111.359 29.888 111.111 31.0906 111.553C32.2932 111.995 42.3512 111.168 42.3512 111.168C42.3512 111.168 42.724 110.2 41.6512 109.456C43.3616 109.333 45.2271 109.006 46.3201 108.213C48.7237 106.477 41.4708 105.125 40.9647 104.85C40.4587 104.575 37.9522 102.363 36.9166 101.535C36.6036 101.307 36.2335 101.169 35.8472 101.137L35.9771 97.3571C37.5204 95.6181 39.192 86.029 39.192 86.029C39.7385 85.5736 39.9763 84.4654 40.0741 83.789C40.2738 83.7228 40.4484 83.5969 40.5741 83.4283C40.6999 83.2596 40.7709 83.0564 40.7775 82.8462C42.5435 82.9052 44.7649 82.8917 45.1917 82.4683C45.9204 81.7464 45.8343 79.2855 45.8343 79.2855L44.8054 53.2356L44.738 53.136C44.9081 51.9436 44.9115 50.7333 44.7481 49.5399C47.0589 50.1994 48.857 50.6481 48.857 50.6481C48.857 50.6481 52.335 51.2891 54.7757 51.8288C54.3762 52.2531 54.0745 52.7598 53.8919 53.3132C51.6991 59.5541 64.1354 59.296 64.1354 59.296L70.0069 62.0116L83.828 66.5287C79.3868 65.2181 74.3131 63.6764 70.8604 62.6189C70.5204 62.5149 70.1746 62.4309 69.8247 62.3675C66.657 61.794 63.3662 62.9478 61.3489 65.4931C61.3253 65.5251 61.3034 65.5538 61.2781 65.5841C60.795 66.2126 60.5258 66.9792 60.5101 67.7717C60.4943 68.5643 60.7327 69.341 61.1903 69.9882C61.7183 70.7354 62.425 71.7289 63.2532 72.8843C61.5007 73.414 58.6012 74.8898 60.3638 78.685C62.8062 83.9459 69.3626 86.95 69.3626 86.95C69.3626 86.95 73.6486 88.1813 74.7601 89.5391C75.0722 89.9203 76.2782 90.7654 77.8553 91.7842C78.8673 92.8552 79.6601 93.5552 80.1307 93.7104C82.0097 94.3294 85.6682 97.2998 88.2422 99.5279L87.8559 104.851L87.8306 105.172L87.6721 105.037C87.6721 105.037 86.5335 107.398 83.2343 108.189C82.5725 108.338 81.9864 108.72 81.583 109.265L81.5711 109.281L81.4733 109.422L81.3991 109.367C80.7244 110.316 80.4107 111.699 82.9576 112.081C86.9434 112.674 91.3913 111.826 91.3913 111.826L95.3653 108.152C95.8068 108.524 96.3253 108.793 96.8833 108.94C99.8537 109.615 108.196 112.843 108.196 112.843C108.196 111.937 115.569 100.285 115.569 100.285C125.521 81.4479 114.699 67.3704 113.503 65.9046L113.396 65.7764L113.304 64.2111L113.283 63.8519C113.283 63.8519 118.654 61.4769 116.596 60.3468C114.538 59.2167 113.391 53.7838 111.453 51.5218C109.935 49.7575 110.023 45.6621 109.863 42.1723C110.037 43.034 110.411 43.8428 110.954 44.5337C110.966 44.5489 110.979 44.5607 110.991 44.5759L110.848 44.4511C110.883 44.505 110.917 44.5523 110.954 44.5978ZM44.7784 43.1506C45.47 43.8944 46.6777 44.8458 47.4772 45.4496C46.5191 44.9824 45.7736 44.5877 45.1984 44.2689C45.0635 43.8944 44.9218 43.52 44.7784 43.1506ZM24.32 25.4989C24.1548 25.9942 23.8538 26.4331 23.4514 26.7657L23.114 25.31C23.556 25.3808 23.9675 25.4466 24.32 25.4989ZM91.7354 65.4931C91.8687 65.2063 92.007 64.9246 92.147 64.6497C92.7384 64.4572 93.26 64.0947 93.6465 63.6073C93.9404 64.6276 94.158 65.6684 94.2975 66.721C94.2975 66.7699 94.2975 66.7969 94.2975 66.7969C94.2903 67.2213 94.2262 67.6428 94.1069 68.0501C93.9518 68.5427 93.6684 69.0065 93.1539 69.0622C92.9397 69.0841 91.8855 68.8294 90.3084 68.3993C89.8513 68.2745 89.3487 68.1345 88.8123 67.9827C89.654 67.927 90.8246 67.453 91.7354 65.4931ZM104.934 29.903C104.619 29.397 103.961 29.0731 103.156 28.8825C103.01 28.7847 102.782 28.6295 102.492 28.4187C101.075 27.3813 98.2462 25.0452 96.9491 22.0614C97.3107 21.9605 97.6637 21.8314 98.005 21.6751C98.5348 21.4322 99.0351 21.1294 99.4961 20.7727C99.6512 20.6512 99.803 20.5247 99.9481 20.3932C100.32 20.0579 100.659 19.688 100.96 19.2884C101.08 19.1197 101.196 18.9595 101.297 18.7823C101.463 18.5227 101.613 18.2535 101.746 17.9761C102.053 17.3285 102.29 16.65 102.453 15.952C102.519 15.672 102.576 15.387 102.622 15.1002C102.667 14.8135 102.711 14.525 102.743 14.2349C102.848 13.2112 102.888 12.182 102.863 11.1533C102.863 11.1043 102.863 11.0537 102.863 11.0048C102.863 10.9863 102.863 10.9677 102.863 10.9508C102.858 9.90799 102.745 8.86846 102.525 7.84894C102.601 7.87762 102.677 7.90629 102.75 7.94002C102.872 7.99978 102.988 8.07034 103.097 8.15087C103.07 8.11207 103.04 8.07328 103.011 8.03448C103.5 8.35159 103.865 8.8458 104.192 9.33833C105.691 11.6752 106.648 14.3179 106.994 17.0727C107.339 19.8274 107.064 22.6246 106.189 25.2594C105.943 25.983 105.648 26.7032 105.582 27.464C105.344 30.1813 107.943 32.2543 108.91 34.808C109.394 36.0882 109.47 37.5068 109.534 38.9101C108.805 35.3562 106.142 31.8579 104.939 29.9097L104.934 29.903Z" fill="url(#paint0_linear_1_75)"/>
<defs>
<linearGradient id="paint0_linear_1_75" x1="59.9978" y1="112.843" x2="59.9978" y2="-0.0129221" gradientUnits="userSpaceOnUse">
<stop stop-color="#808080" stop-opacity="0.25"/>
<stop offset="0.54" stop-color="#808080" stop-opacity="0.12"/>
<stop offset="1" stop-color="#808080" stop-opacity="0.1"/>
</linearGradient>
</defs>
</svg>
