<svg width="26" height="21" viewBox="0 0 26 21" fill="none" xmlns="http://www.w3.org/2000/svg">
<path d="M1.96689 8.90187C1.44346 8.80095 0.836227 8.81464 0.485567 8.36305C0.278592 8.09621 0.218717 7.72673 0.169111 7.37608C-0.0412846 5.86054 -0.15589 4.23382 0.44793 2.86026C1.43833 0.607484 3.98703 -0.145151 6.20218 0.0224812C8.41732 0.190114 10.5914 1.0163 12.8066 0.877749C14.435 0.771696 16.0412 0.142219 17.6645 0.321825C18.9491 0.46551 20.1465 1.10354 21.3011 1.75525C22.3821 2.3642 23.4871 3.01934 24.2535 4.07645C25.379 5.62449 25.5911 7.76266 25.6219 9.76912C25.6595 12.1245 25.4936 14.5706 24.5049 16.6438C23.0715 19.6526 19.8745 21.4435 16.8947 20.9047C16.492 20.8537 16.1091 20.6999 15.7829 20.4583C15.4698 20.168 15.2246 19.8123 15.0645 19.4165C14.4384 18.0721 14.1185 16.5223 13.2427 15.3711C12.3669 14.2199 10.5897 13.7187 9.7447 14.8973C9.28457 15.5353 9.20758 16.5206 8.5935 16.9636C7.85626 17.4956 6.88297 16.8678 6.30994 16.1084C4.61651 13.883 5.19638 9.51425 1.96689 8.90187Z" fill="#945B79"/>
</svg>
