<svg width="21" height="45" viewBox="0 0 21 45" fill="none" xmlns="http://www.w3.org/2000/svg">
<path d="M5.63137 0.707016C7.24106 1.47554 8.35754 2.97207 9.40646 4.41285C10.2797 5.6104 11.1834 6.89072 11.2982 8.36697C11.3438 8.97166 11.2543 9.58648 11.3692 10.181C11.7728 12.2806 14.4095 13.2214 15.1797 15.2212C15.5378 16.1637 15.4246 17.2127 15.2675 18.2092C15.0417 19.6508 14.7378 21.079 14.3571 22.4876C14.1291 23.3322 13.8707 24.2105 14.0446 25.0685C14.1781 25.734 14.5514 26.3184 14.8486 26.9265C15.6239 28.5666 15.7574 30.4263 15.8165 32.2387C15.8756 34.051 15.8739 35.8955 16.4161 37.6251C16.9583 39.3547 18.1542 40.9897 19.8787 41.5488C19.2995 41.9437 18.6281 42.1823 17.9295 42.2414C17.8265 42.8072 18.1491 43.3832 18.6051 43.7412C19.0612 44.0993 19.6186 44.2851 20.1625 44.4625C19.7913 44.7244 19.3645 44.8967 18.9155 44.9659C18.4665 45.035 18.0076 44.9992 17.5748 44.8611C16.8536 44.6246 16.2573 44.1179 15.6814 43.6213L12.4434 40.836C12.0108 40.4858 11.6111 40.0969 11.2492 39.674C9.15478 37.0711 10.4047 33.1271 9.23586 30.0006C8.28322 27.4586 5.72258 25.3945 5.95736 22.6903C6.02154 21.9336 6.31207 21.2174 6.5553 20.4945C7.41799 17.8717 7.68895 15.0904 7.34871 12.3504C7.00847 9.61038 6.06549 6.97978 4.58752 4.64763C4.21761 4.07334 3.78859 3.49568 3.17208 3.20009C2.23464 2.75248 0.895203 2.94504 0.363145 2.05152C0.0810694 1.58027 0.0253361 0.75093 0 0.22225C1.71948 -0.171304 4.02337 -0.0615126 5.63137 0.707016Z" fill="#945B79"/>
</svg>
