<svg width="48" height="37" viewBox="0 0 48 37" fill="none" xmlns="http://www.w3.org/2000/svg">
<path d="M40.2673 0.371749C40.2673 0.371749 35.5969 2.77007 35.0078 12.1951C35.0078 12.1951 34.2505 16.9917 33.8297 17.8332C33.4089 18.6748 31.3893 26.6271 31.6418 27.5948C31.6418 27.5948 31.221 28.5626 29.6642 28.1418C28.1074 27.7211 19.6922 26.4167 17.7988 25.1544L12.5814 22.672C12.5814 22.672 2.39902 15.477 0.253148 21.6621C-1.89272 27.8473 10.3093 27.5982 10.3093 27.5982L16.0737 30.2911L33.5352 36.0521C33.5352 36.0521 35.8493 37.104 37.4062 33.7379C37.7949 32.8964 38.2106 32.097 38.6163 31.3699C40.7166 27.6286 42.3991 23.6676 43.6334 19.5584C44.1097 17.9578 44.4513 16.6063 44.4379 16.0762C44.4194 15.339 45.1431 14.1592 45.9526 13.0669C47.804 10.6029 48.4772 7.43208 47.6525 4.46657C46.9877 2.08171 45.6009 -0.0944522 42.7464 0.00316381L40.2673 0.371749Z" fill="#FFC1C7"/>
</svg>
