<svg width="9" height="6" viewBox="0 0 9 6" fill="none" xmlns="http://www.w3.org/2000/svg">
<path d="M6.78043 5.69908C5.26305 6.17541 0 4.79695 0 4.79695C0 4.79695 3.54358 0.6724 5.06277 0.197878C5.43164 0.0537875 5.8262 -0.0128718 6.22193 0.00205023C6.61766 0.0169723 7.00609 0.113157 7.36305 0.284616C7.72002 0.456076 8.03789 0.699144 8.2969 0.998708C8.55591 1.29827 8.75052 1.64792 8.86862 2.02591C8.98672 2.4039 9.02579 2.80215 8.98339 3.19588C8.94099 3.58962 8.81805 3.97042 8.62219 4.3146C8.42632 4.65879 8.16174 4.959 7.8449 5.19656C7.52805 5.43411 7.16572 5.60394 6.78043 5.69548V5.69908Z" fill="#63FFFF"/>
</svg>
