<svg width="19" height="19" viewBox="0 0 19 19" fill="none" xmlns="http://www.w3.org/2000/svg">
<path d="M19 9.49999C19 11.3789 18.4428 13.2156 17.399 14.7779C16.3551 16.3402 14.8714 17.5578 13.1355 18.2768C11.3996 18.9959 9.48946 19.184 7.64664 18.8174C5.80382 18.4509 4.11108 17.5461 2.78249 16.2175C1.45389 14.8889 0.549103 13.1962 0.182544 11.3533C-0.184016 9.51053 0.0041169 7.6004 0.723149 5.8645C1.44218 4.1286 2.65982 2.64491 4.22209 1.60104C5.78435 0.557164 7.62108 0 9.5 0C12.0179 0.00547564 14.431 1.00812 16.2115 2.78853C17.9919 4.56894 18.9945 6.98212 19 9.49999Z" fill="#FFC1C8"/>
</svg>
