<svg width="7" height="5" viewBox="0 0 7 5" fill="none" xmlns="http://www.w3.org/2000/svg">
<path d="M6.32571 3.1523C6.63804 2.89828 6.86585 2.55539 6.97896 2.16902C7.06232 1.77775 6.8956 1.30822 6.52304 1.16532C6.10455 1.00541 5.65714 1.29631 5.31861 1.58891C4.98008 1.88151 4.5905 2.21665 4.14649 2.1537C4.37484 1.94694 4.54565 1.6845 4.64226 1.39199C4.73887 1.09949 4.75796 0.786935 4.69768 0.484848C4.67832 0.359686 4.62541 0.242108 4.54457 0.144612C4.31321 -0.10376 3.89132 0.00341542 3.61233 0.199051C2.72771 0.819981 2.48104 2.02272 2.47764 3.10297C2.38748 2.7134 2.46233 2.30681 2.46063 1.91214C2.45892 1.51747 2.34835 1.06154 2.01152 0.854001C1.80345 0.738814 1.56884 0.68016 1.33104 0.683883C0.932969 0.668572 0.490661 0.709409 0.218472 1.00031C-0.121764 1.36096 -0.0315994 1.96828 0.262705 2.36125C0.557009 2.75423 1.00271 3.0094 1.4127 3.28329C1.74265 3.47945 2.02409 3.74751 2.23607 4.06753C2.26086 4.11258 2.28136 4.15985 2.29731 4.20873H4.77933C5.34018 3.92812 5.86038 3.57273 6.32571 3.1523Z" fill="#63FFFF"/>
</svg>
