<svg width="7" height="8" viewBox="0 0 7 8" fill="none" xmlns="http://www.w3.org/2000/svg">
<path opacity="0.25" d="M6.20994 4.88579C5.20426 6.14977 0 7.99993 0 7.99993C0 7.99993 0.626486 2.51355 1.63217 1.24958C1.86158 0.922021 2.1556 0.644873 2.49613 0.435192C2.83666 0.225511 3.2165 0.0877313 3.61227 0.0303392C4.00804 -0.0270529 4.41136 -0.00284347 4.79742 0.101471C5.18348 0.205785 5.54412 0.388 5.85713 0.636903C6.17013 0.885806 6.42889 1.19613 6.61748 1.54878C6.80607 1.90143 6.92048 2.28894 6.95371 2.68746C6.98693 3.08599 6.93826 3.4871 6.81066 3.8661C6.68307 4.24511 6.47925 4.594 6.21178 4.89129L6.20994 4.88579Z" fill="black"/>
</svg>
