<svg width="178" height="28" viewBox="0 0 178 28" fill="none" xmlns="http://www.w3.org/2000/svg">
<path opacity="0.1" d="M0.40548 0C-0.317993 7.29216 -0.0725325 14.648 1.13546 21.8757L166.51 27.9234C171.114 22.6284 174.979 16.7338 178 10.4005L0.40548 0ZM65.813 15.6016H62.5568C62.775 15.5946 62.9924 15.6315 63.1961 15.7102C63.3998 15.7888 63.5855 15.9076 63.7424 16.0595C63.8992 16.2114 64.024 16.3932 64.1091 16.5942C64.1943 16.7953 64.2382 17.0114 64.2382 17.2297C64.2382 17.448 64.1943 17.6641 64.1091 17.8652C64.024 18.0662 63.8992 18.2481 63.7424 18.3999C63.5855 18.5518 63.3998 18.6706 63.1961 18.7493C62.9924 18.8279 62.775 18.8648 62.5568 18.8578H43.721C43.2983 18.8442 42.8974 18.6667 42.6032 18.3628C42.309 18.059 42.1445 17.6526 42.1445 17.2297C42.1445 16.8068 42.309 16.4004 42.6032 16.0966C42.8974 15.7927 43.2983 15.6152 43.721 15.6016H46.9772C46.5456 15.6016 46.1317 15.4302 45.8265 15.125C45.5214 14.8198 45.3499 14.4059 45.3499 13.9744C45.3499 13.5428 45.5214 13.1289 45.8265 12.8237C46.1317 12.5186 46.5456 12.3471 46.9772 12.3471H44.652C44.2293 12.3335 43.8285 12.156 43.5343 11.8522C43.2401 11.5483 43.0756 11.142 43.0756 10.719C43.0756 10.2961 43.2401 9.88974 43.5343 9.5859C43.8285 9.28206 44.2293 9.10457 44.652 9.09095H63.4879C63.9106 9.10457 64.3114 9.28206 64.6056 9.5859C64.8999 9.88974 65.0643 10.2961 65.0643 10.719C65.0643 11.142 64.8999 11.5483 64.6056 11.8522C64.3114 12.156 63.9106 12.3335 63.4879 12.3471H65.813C66.2446 12.3471 66.6585 12.5186 66.9636 12.8237C67.2688 13.1289 67.4402 13.5428 67.4402 13.9744C67.4402 14.4059 67.2688 14.8198 66.9636 15.125C66.6585 15.4302 66.2446 15.6016 65.813 15.6016Z" fill="#63FFFF"/>
</svg>
