<svg width="16" height="32" viewBox="0 0 16 32" fill="none" xmlns="http://www.w3.org/2000/svg">
<path opacity="0.1" d="M13.4487 13.4345C12.606 14.5593 11.8636 15.7706 11.8913 16.5285C11.9052 17.0735 11.5452 18.4631 11.0642 20.1087C9.82501 24.2417 8.1425 28.2287 6.04602 32C5.49056 30.0965 4.52846 27.8626 2.9313 26.7949C1.60581 25.9107 0.551998 23.9605 0 21.6937C0.420487 20.0533 0.820211 18.6742 0.984599 18.3454C1.4172 17.4802 2.19588 12.5486 2.19588 12.5486C2.26908 11.2988 2.43273 10.056 2.68558 8.82992C3.31371 5.83114 4.38137 3.81176 5.36251 2.51396C6.54611 0.935832 7.61203 0.392484 7.61203 0.392484L10.1644 0.00314363C13.1061 -0.0954892 14.525 2.14192 15.2085 4.5939C16.046 7.64113 15.3452 10.9012 13.4487 13.4345Z" fill="black"/>
</svg>
