<svg width="22" height="22" viewBox="0 0 22 22" fill="none" xmlns="http://www.w3.org/2000/svg">
<path d="M21.9999 10.9983C22.0003 13.174 21.3554 15.301 20.1468 17.1102C18.9383 18.9194 17.2203 20.3296 15.2103 21.1624C13.2002 21.9951 10.9884 22.2131 8.85442 21.7887C6.72047 21.3644 4.7603 20.3167 3.22182 18.7782C1.68334 17.2397 0.635662 15.2796 0.211282 13.1456C-0.213099 11.0117 0.00488179 8.79979 0.837661 6.78973C1.67044 4.77968 3.0806 3.06174 4.88981 1.85318C6.69901 0.64462 8.82599 -0.000265841 11.0017 8.13051e-05C12.4476 -0.00548871 13.8803 0.275185 15.2171 0.825924C16.554 1.37666 17.7687 2.18658 18.7911 3.20897C19.8135 4.23135 20.6234 5.446 21.1741 6.78288C21.7248 8.11976 22.0055 9.55243 21.9999 10.9983Z" fill="#FFC1C7"/>
</svg>
