<svg width="6" height="4" viewBox="0 0 6 4" fill="none" xmlns="http://www.w3.org/2000/svg">
<path d="M4.66124 3.73592C3.69301 4.22375 0 3.88616 0 3.88616C0 3.88616 1.92534 0.718074 2.89357 0.228394C3.12448 0.106105 3.37747 0.031123 3.63773 0.0078249C3.89798 -0.0154732 4.16027 0.0133802 4.40923 0.0927106C4.6582 0.172041 4.88883 0.300244 5.08763 0.469817C5.28643 0.639389 5.44939 0.846923 5.56699 1.08026C5.68458 1.3136 5.75444 1.56806 5.77247 1.82873C5.7905 2.08941 5.75635 2.35106 5.672 2.59837C5.58765 2.84567 5.45481 3.07367 5.28125 3.26899C5.10769 3.46432 4.89691 3.62307 4.66124 3.73592Z" fill="#63FFFF"/>
</svg>
