<svg width="3" height="5" viewBox="0 0 3 5" fill="none" xmlns="http://www.w3.org/2000/svg">
<path opacity="0.1" d="M0.364405 0.0351401C0.364405 0.0351401 -1.14105 4.18716 1.96788 4.5663C2.11079 4.6363 2.27217 4.65932 2.42895 4.63209C2.58574 4.60485 2.72989 4.52874 2.84082 4.41465C2.84082 4.41465 2.62259 4.34252 2.82418 3.93934C2.89284 3.79498 2.94377 3.64283 2.97583 3.48622C3.02319 3.27454 3.00047 3.0532 2.9111 2.85556C2.9111 2.85556 2.7724 1.5221 0.967329 0.486407C0.967329 0.486407 0.643672 0.0184945 0.530855 0L0.625179 0.802665C0.625179 0.802665 1.21145 0.712041 1.58319 1.03015C1.58319 1.03015 0.658465 0.78047 0.632573 0.922878C0.632573 0.952469 0.701007 1.3464 0.701007 1.3464C0.701007 1.3464 1.7219 1.1929 2.28044 1.7015C2.28044 1.7015 1.21146 1.25578 0.728748 1.49621L0.873005 2.08618C0.873005 2.08618 1.94384 1.8698 2.60039 2.42648C2.60039 2.42648 1.46668 1.99741 0.911842 2.21195L1.13193 2.76678C1.13193 2.76678 2.18057 2.58184 2.72431 3.04235C2.72431 3.04235 1.36496 2.67246 1.19111 2.89254C1.2859 3.10825 1.40703 3.31139 1.55175 3.49732C1.55175 3.49732 2.30633 3.37895 2.59854 3.68226C2.59854 3.68226 1.66457 3.53616 1.63128 3.63418C1.63128 3.63418 2.10844 4.20751 2.50422 4.37396C2.13315 4.2432 1.80283 4.01747 1.5462 3.71925C1.52374 3.958 1.57061 4.19817 1.68122 4.41095C1.68122 4.41095 1.27988 4.226 1.43339 3.5713C1.43339 3.5713 1.0783 3.10893 1.07645 3.01646C1.07645 3.01646 0.834168 3.64158 0.891501 4.0799C0.891501 4.0799 0.595589 3.62123 1.01357 2.87035L0.780532 2.31552C0.780532 2.31552 0.410639 3.12373 0.436531 3.51766C0.436531 3.51766 0.2072 3.00351 0.732445 2.16941L0.584491 1.59423C0.391409 1.9438 0.244095 2.31675 0.146171 2.7039C0.146171 2.7039 0.0370522 2.17866 0.549351 1.42038L0.495715 1.02275C0.495715 1.02275 0.236793 1.5184 0.173912 1.66821C0.111031 1.81801 0.0666405 1.81246 0.0666405 1.81246C0.110432 1.4627 0.249957 1.13182 0.469826 0.856298C0.469826 0.856298 0.41619 0.0369895 0.364405 0.0351401Z" fill="#63FFFF"/>
</svg>
