<svg width="4" height="4" viewBox="0 0 4 4" fill="none" xmlns="http://www.w3.org/2000/svg">
<path opacity="0.1" d="M3.91293 0.00563398C3.91293 0.00563398 -0.478488 -0.257889 0.0430278 2.81961C0.0163133 2.97576 0.0397291 3.13635 0.109912 3.27837C0.180095 3.42039 0.293439 3.53655 0.433703 3.61018C0.433703 3.61018 0.433704 3.38167 0.88335 3.45906C1.04088 3.48646 1.20116 3.49451 1.36064 3.48302C1.57639 3.46805 1.78143 3.38332 1.94481 3.24161C1.94481 3.24161 3.17949 2.73115 3.65863 0.713275C3.65863 0.713275 4.01429 0.272843 3.99955 0.160431L3.26242 0.477394C3.26242 0.477394 3.51489 1.01181 3.31587 1.45593C3.31587 1.45593 3.29191 0.495822 3.15001 0.517936C3.12053 0.517936 2.76487 0.702218 2.76487 0.702218C2.76487 0.702218 3.20161 1.63468 2.87175 2.31099C2.87175 2.31099 2.99706 1.16292 2.62849 0.770402L2.10698 1.07446C2.10698 1.07446 2.61559 2.03641 2.27099 2.82145C2.27099 2.82145 2.35945 1.6181 1.99826 1.14818L1.52465 1.51674C1.52465 1.51674 2.00378 2.46579 1.70893 3.1163C1.70893 3.1163 1.67207 1.71392 1.41961 1.60888C1.24084 1.76033 1.08119 1.93298 0.944166 2.12303C0.944166 2.12303 1.27034 2.81224 1.06763 3.17527C1.06763 3.17527 0.944166 2.24096 0.840969 2.23728C0.840969 2.23728 0.428179 2.85646 0.385794 3.28031C0.405626 2.88699 0.528258 2.50575 0.741455 2.17462C0.503574 2.21971 0.283953 2.33305 0.109372 2.5008C0.109372 2.5008 0.17387 2.06406 0.846497 2.02536C0.846497 2.02536 1.18742 1.55544 1.27771 1.5278C1.27771 1.5278 0.612458 1.47067 0.210724 1.65127C0.210724 1.65127 0.564547 1.23848 1.39934 1.4246L1.86741 1.04498C1.86741 1.04498 0.992077 0.925198 0.619829 1.05604C0.619829 1.05604 1.04736 0.687476 1.99273 0.958369L2.50134 0.654303C2.11016 0.567686 1.70928 0.532988 1.30904 0.551106C1.30904 0.551106 1.77896 0.298641 2.65061 0.571377L3.01917 0.40921C3.01917 0.40921 2.46633 0.302327 2.31153 0.283899C2.15673 0.265471 2.14383 0.223086 2.14383 0.223086C2.48996 0.16537 2.84532 0.204926 3.17028 0.337341C3.17028 0.337341 3.92768 0.0553899 3.91293 0.00563398Z" fill="#63FFFF"/>
</svg>
