<svg width="178" height="23" viewBox="0 0 178 23" fill="none" xmlns="http://www.w3.org/2000/svg">
<path opacity="0.1" d="M174.595 13.5859H155.833C155.412 13.5723 155.012 13.3955 154.719 13.0928C154.426 12.7902 154.262 12.3854 154.262 11.9641C154.262 11.5428 154.426 11.1381 154.719 10.8354C155.012 10.5328 155.412 10.3559 155.833 10.3424H159.076C158.646 10.3424 158.234 10.1716 157.93 9.86762C157.626 9.56364 157.455 9.15136 157.455 8.72147C157.455 8.29158 157.626 7.87929 157.93 7.57531C158.234 7.27133 158.646 7.10056 159.076 7.10056H156.76C156.339 7.08699 155.94 6.91019 155.647 6.60753C155.354 6.30488 155.19 5.9001 155.19 5.47881C155.19 5.05752 155.354 4.65275 155.647 4.35009C155.94 4.04744 156.339 3.87063 156.76 3.85706H166.553C164.38 2.84715 161.84 2.12843 158.913 1.7514C132.211 -1.67725 122.677 0.590001 119.314 2.92963C115.165 5.80787 110.536 7.92532 105.59 8.94533C89.1146 12.3437 58.3039 16.4321 30.3781 7.63581C16.4986 3.25953 6.18402 10.6521 0 22.9999H177.852C177.62 19.4114 176.925 16.0989 175.649 13.1971C175.355 13.4484 174.982 13.5863 174.595 13.5859Z" fill="#63FFFF"/>
</svg>
