<svg width="42" height="38" viewBox="0 0 42 38" fill="none" xmlns="http://www.w3.org/2000/svg">
<path d="M41.5433 24.7996C40.7902 27.5868 39.4001 30.1234 37.5016 32.1748C35.6031 34.2262 33.2574 35.7261 30.6816 36.536C29.0455 37.1329 27.3522 37.5274 25.6341 37.7119C22.633 38.0171 19.6058 37.7518 16.6891 36.928C5.35888 33.7691 -1.90356 23.0933 0.439159 13.2016C1.10331 10.6651 2.30065 8.32941 3.93743 6.37734C5.57422 4.42526 7.60605 2.90976 9.87394 1.94944C11.4359 1.2177 13.0733 0.691299 14.7511 0.381516C18.2364 -0.257409 21.807 -0.0923908 25.2294 0.865743C36.6023 4.02465 43.9499 14.8387 41.5433 24.7996Z" fill="#84BAEF"/>
</svg>
