<svg width="41" height="37" viewBox="0 0 41 37" fill="none" xmlns="http://www.w3.org/2000/svg">
<path d="M32.1854 35.2317C29.516 36.3641 26.5346 36.9342 23.5185 36.889C20.5023 36.8439 17.5493 36.1849 14.934 34.9734C13.2084 34.2616 11.5942 33.3866 10.1257 32.3669C7.5446 30.5903 5.3741 28.4597 3.71469 26.0735C-2.78374 16.8682 -0.539878 5.94871 8.75608 1.69833C11.1671 0.655192 13.8453 0.0763063 16.5805 0.00704462C19.3158 -0.062217 22.0337 0.380033 24.5213 1.29912C26.2896 1.92366 27.9619 2.7117 29.5044 3.6474C32.6912 5.52907 35.3518 7.92917 37.3142 10.6922C43.8126 19.8975 41.4814 30.9814 32.1854 35.2317Z" fill="#FFC0C0"/>
</svg>
