<svg width="20" height="38" viewBox="0 0 20 38" fill="none" xmlns="http://www.w3.org/2000/svg">
<path d="M1.64611 0.198202C1.64611 0.198202 -0.330302 10.711 0.0481593 17.4813C0.42662 24.2515 -0.246199 29.2522 0.594825 31.232C1.43585 33.2118 1.43585 37.7079 1.43585 37.7079C1.43585 37.7079 12.8738 38.1284 14.0512 37.9602C15.2287 37.792 15.1866 36.9089 15.1866 36.9089C15.1866 36.9089 14.3876 29.9251 15.1445 27.7384C15.9015 25.5517 15.7753 18.8656 15.7753 18.8656L18.9712 8.10047C18.9712 8.10047 19.9384 3.26458 17.9199 1.28817C15.9015 -0.688236 1.64611 0.198202 1.64611 0.198202Z" fill="#575988"/>
</svg>
