<svg width="9" height="6" viewBox="0 0 9 6" fill="none" xmlns="http://www.w3.org/2000/svg">
<path d="M7.61268 4.32048C6.96683 4.59581 6.24354 4.62991 5.57465 4.41657C4.85485 4.18057 4.2598 3.67485 3.68497 3.17925L0.453457 0.399513C0.300057 0.268027 0.148343 0.134857 0 0C0.0337142 0.0455142 0.0674379 0.0927154 0.104524 0.13823C0.465209 0.560712 0.864163 0.948954 1.29631 1.298L4.52783 4.07942C5.10266 4.57334 5.69771 5.08074 6.4175 5.31674C6.84956 5.45428 7.30762 5.48979 7.75571 5.42047C8.2038 5.35115 8.62972 5.17889 9.00002 4.91722C8.51216 4.78353 8.04525 4.5827 7.61268 4.32048Z" fill="black"/>
</svg>
