<svg width="27" height="46" viewBox="0 0 27 46" fill="none" xmlns="http://www.w3.org/2000/svg">
<path d="M26.9412 19.4581L26.8149 27.2875L26.5285 43.989L26.36 44.1355C21.3488 48.473 17.8114 43.8829 17.8114 43.8829C17.5452 44.1978 16.9692 44.3478 16.3493 44.4118C15.6712 44.4725 14.9891 44.4725 14.3111 44.4118L14.1426 44.3966C14.1426 44.3966 0.916201 28.1297 0.11608 25.2661C-0.0426325 24.7818 -0.0384901 24.2588 0.127873 23.7771C0.388965 23.0932 1.0139 22.6855 1.61189 22.4447C2.05056 22.2713 2.51065 22.1579 2.97967 22.1078C2.97967 22.1078 2.60067 19.1178 0.87409 14.6961C-0.0961622 12.2115 -0.0018322 10.9499 0.265998 10.3165C0.474871 9.82633 0.789867 9.72189 0.789867 9.72189C0.789867 9.72189 1.32216 9.32941 2.17955 8.71121C2.89208 8.19071 3.83033 7.51019 4.87469 6.75723L5.84326 6.06323C9.41601 3.49947 13.7215 0.480912 14.6025 0.167602C14.6575 0.147507 14.7137 0.131184 14.7709 0.118751C16.5784 -0.317526 22.6441 0.588718 22.6441 0.588718L26.9412 19.4581Z" fill="#63FFFF"/>
</svg>
