<svg width="3" height="5" viewBox="0 0 3 5" fill="none" xmlns="http://www.w3.org/2000/svg">
<path opacity="0.1" d="M0.364411 0.0350749C0.364411 0.0350749 -1.1401 4.1794 1.96491 4.55599C2.10696 4.6265 2.26776 4.65002 2.42406 4.62314C2.58035 4.59626 2.72406 4.52038 2.83439 4.40646C2.83439 4.40646 2.61841 4.33446 2.81778 3.93203C2.88795 3.78789 2.94122 3.63613 2.97653 3.47976C3.02322 3.26827 2.9999 3.04734 2.91008 2.85026C2.91008 2.85026 2.77163 1.51928 0.969906 0.48366C0.969906 0.48366 0.648697 0.0184602 0.53609 0L0.628391 0.801177C0.628391 0.801177 1.21358 0.710721 1.58463 1.02824C1.58463 1.02824 0.661623 0.777177 0.637624 0.921167C0.637624 0.950703 0.705926 1.34391 0.705926 1.34391C0.705926 1.34391 1.72493 1.19069 2.28058 1.69834C2.28058 1.69834 1.21358 1.25161 0.731768 1.49344L0.875757 2.08231C0.875757 2.08231 1.9446 1.86633 2.59994 2.42199C2.59994 2.42199 1.47018 1.99371 0.91637 2.20785L1.13605 2.76165C1.13605 2.76165 2.18275 2.57705 2.72548 3.03671C2.72548 3.03671 1.3668 2.66751 1.19512 2.88534C1.28957 3.10091 1.40982 3.30423 1.55325 3.49083C1.55325 3.49083 2.30828 3.37084 2.5981 3.67543C2.5981 3.67543 1.66586 3.5296 1.63263 3.62744C1.63263 3.62744 2.11075 4.19786 2.5058 4.36585C2.13443 4.23534 1.80398 4.00931 1.54771 3.71051C1.52325 3.95188 1.5701 4.19513 1.68247 4.41015C1.68247 4.41015 1.28004 4.22555 1.43326 3.57206C1.43326 3.57206 1.07882 3.11055 1.07882 3.01825C1.07882 3.01825 0.835146 3.64221 0.894219 4.07971C0.894219 4.07971 0.598856 3.6219 1.01606 2.87241L0.783456 2.31861C0.783456 2.31861 0.414254 3.12717 0.440098 3.52037C0.440098 3.52037 0.211193 3.00717 0.735463 2.17462L0.589626 1.59866C0.396435 1.94736 0.249369 2.31968 0.152119 2.70627C0.152119 2.70627 0.0413546 2.18385 0.552703 1.42513L0.499173 1.03008C0.499173 1.03008 0.240727 1.52482 0.179808 1.67435C0.11889 1.82387 0.0727359 1.81833 0.0727359 1.81833C0.115251 1.46923 0.253942 1.13881 0.473326 0.863941C0.473326 0.863941 0.421638 0.0369209 0.364411 0.0350749Z" fill="#63FFFF"/>
</svg>
