<svg width="9" height="6" viewBox="0 0 9 6" fill="none" xmlns="http://www.w3.org/2000/svg">
<path opacity="0.25" d="M5.9166 5.58548C4.37489 5.53298 0 2.58255 0 2.58255C0 2.58255 4.57089 -0.0528826 6.1126 0.00136607C6.49574 -0.0106059 6.87726 0.0562169 7.23352 0.197702C7.58977 0.339188 7.91318 0.552319 8.18371 0.823891C8.45424 1.09546 8.66612 1.41969 8.80623 1.77649C8.94635 2.13329 9.0117 2.51505 8.99825 2.89814C8.98481 3.28123 8.89285 3.65748 8.72806 4.00358C8.56328 4.34967 8.32919 4.65824 8.04029 4.91018C7.75138 5.16212 7.41382 5.35205 7.04852 5.46821C6.68322 5.58437 6.29796 5.62428 5.9166 5.58548Z" fill="black"/>
</svg>
