<svg width="14" height="5" viewBox="0 0 14 5" fill="none" xmlns="http://www.w3.org/2000/svg">
<path d="M13.1019 3.75184C13.1209 3.9177 13.1209 4.08548 13.1019 4.25133C13.0072 4.53426 12.8127 4.76493 12.561 4.89264C12.3094 5.02036 12.0212 5.03467 11.7597 4.93243L6.18159 2.77558C5.45239 2.41584 4.65581 2.24495 3.85501 2.27648C3.0542 2.308 2.27119 2.54107 1.56806 2.9572C1.33485 3.10122 1.0595 3.14291 0.798748 3.07367C0.537996 3.00442 0.311705 2.82953 0.166522 2.58503C0.0213379 2.34052 -0.0316695 2.04503 0.0184004 1.75946C0.0684702 1.47389 0.217803 1.21999 0.435645 1.05009C1.40105 0.444225 2.48342 0.0898379 3.59715 0.0149693C4.71088 -0.0598992 5.82543 0.146799 6.85264 0.618713L12.4728 2.88909C12.6365 2.96345 12.7802 3.08162 12.8902 3.23252C13.0002 3.38343 13.0731 3.56213 13.1019 3.75184Z" fill="white"/>
</svg>
