<svg width="30" height="33" viewBox="0 0 30 33" fill="none" xmlns="http://www.w3.org/2000/svg">
<path d="M16.6261 1.12028L30 6.6987L22.0104 32.712L8.63649 27.1625C7.07093 26.6443 5.61343 25.757 4.35432 24.5557C3.0952 23.3544 2.0613 21.8647 1.31671 20.1788C0.572125 18.493 0.13272 16.6469 0.0257157 14.7551C-0.0812881 12.8633 0.146396 10.9661 0.694659 9.181C1.24292 7.39592 2.10009 5.76103 3.21301 4.37766C4.32593 2.99429 5.67088 1.89194 7.16454 1.13891C8.65819 0.38589 10.2687 -0.00175983 11.8962 6.00575e-06C13.5238 0.00177184 15.1336 0.392926 16.6261 1.14919V1.12028Z" fill="#00EEFB"/>
</svg>
