<svg width="51" height="39" viewBox="0 0 51 39" fill="none" xmlns="http://www.w3.org/2000/svg">
<path d="M16.6053 1.14773L43.8647 12.4927C46.626 13.8919 48.8275 16.4612 50.0235 19.6803C51.2195 22.8995 51.3206 26.5278 50.3062 29.8305C49.2918 33.1332 47.2379 35.8633 44.5603 37.4681C41.8827 39.0728 38.7817 39.4322 35.8851 38.4734L8.62566 27.1285C7.06207 26.6109 5.6064 25.7248 4.34886 24.525C3.09133 23.3252 2.05871 21.8373 1.31506 20.1535C0.571408 18.4698 0.132553 16.6261 0.0256835 14.7366C-0.0811862 12.8472 0.146213 10.9523 0.693788 9.1695C1.24136 7.38665 2.09745 5.75379 3.20898 4.37215C4.32051 2.99052 5.66378 1.88955 7.15556 1.13747C8.64734 0.385384 10.2558 -0.00175762 11.8813 5.99856e-06C13.5068 0.00176962 15.1147 0.392412 16.6053 1.14773Z" fill="white"/>
</svg>
