<svg width="20" height="17" viewBox="0 0 20 17" fill="none" xmlns="http://www.w3.org/2000/svg">
<path d="M6.375 9.56249H4.78125C4.48773 9.56249 4.25 9.80023 4.25 10.0937V16.4687C4.25 16.7623 4.48773 17 4.78125 17H6.375C6.66851 17 6.90625 16.7623 6.90625 16.4687V10.0937C6.90625 9.80023 6.66851 9.56249 6.375 9.56249ZM2.125 12.75H0.53125C0.237734 12.75 0 12.9877 0 13.2812V16.4687C0 16.7623 0.237734 17 0.53125 17H2.125C2.41851 17 2.65625 16.7623 2.65625 16.4687V13.2812C2.65625 12.9877 2.41851 12.75 2.125 12.75ZM10.625 6.375H9.03124C8.73773 6.375 8.49999 6.61273 8.49999 6.90625V16.4687C8.49999 16.7623 8.73773 17 9.03124 17H10.625C10.9185 17 11.1562 16.7623 11.1562 16.4687V6.90625C11.1562 6.61273 10.9185 6.375 10.625 6.375ZM14.875 3.1875H13.2812C12.9877 3.1875 12.75 3.42523 12.75 3.71875V16.4687C12.75 16.7623 12.9877 17 13.2812 17H14.875C15.1685 17 15.4062 16.7623 15.4062 16.4687V3.71875C15.4062 3.42523 15.1685 3.1875 14.875 3.1875ZM19.125 0H17.5312C17.2377 0 17 0.237734 17 0.53125V16.4687C17 16.7623 17.2377 17 17.5312 17H19.125C19.4185 17 19.6562 16.7623 19.6562 16.4687V0.53125C19.6562 0.237734 19.4185 0 19.125 0Z" fill="black"/>
</svg>
