<svg width="22" height="15" viewBox="0 0 22 15" fill="none" xmlns="http://www.w3.org/2000/svg">
<path d="M21.2582 4.11431C15.3262 -1.37244 6.10012 -1.37043 0.170397 4.11431C-0.0525957 4.32056 -0.0569485 4.66978 0.158678 4.88373L1.30511 6.02113C1.51069 6.22537 1.8415 6.22972 2.05512 6.03385C6.94086 1.55793 14.4871 1.55693 19.3738 6.03385C19.5875 6.22972 19.9183 6.22503 20.1239 6.02113L21.2703 4.88373C21.4856 4.66978 21.4812 4.32056 21.2582 4.11431ZM10.7143 10.7143C9.53072 10.7143 8.57145 11.6736 8.57145 12.8572C8.57145 14.0408 9.53072 15.0001 10.7143 15.0001C11.8979 15.0001 12.8572 14.0408 12.8572 12.8572C12.8572 11.6736 11.8979 10.7143 10.7143 10.7143ZM17.5002 7.91556C13.641 4.5027 7.78327 4.50639 3.92845 7.91556C3.69742 8.1198 3.69006 8.47438 3.90937 8.69067L5.0625 9.82874C5.26339 10.027 5.58683 10.0403 5.80078 9.85552C8.61163 7.42571 12.8234 7.43107 15.6275 9.85552C15.8415 10.0403 16.1649 10.0273 16.3658 9.82874L17.5189 8.69067C17.7386 8.47438 17.7309 8.11946 17.5002 7.91556Z" fill="black"/>
</svg>
